<svg xmlns="http://www.w3.org/2000/svg" width="500" height="500" viewBox="0 0 500 500"><path fill="#84C803" d="M19.723 9.493c.045-.35.075-.706.075-1.068 0-4.653-3.77-8.425-8.424-8.425S2.95 3.772 2.95 8.426c0 .362.02.716.067 1.067C1.24 10.27 0 11.97 0 13.95c0 2.326 1.713 4.27 4.01 4.777v1.692c0 1.06.91 1.92 2.034 1.92 1.122 0 2.032-.86 2.032-1.92v-1.56h6.594v1.56c0 1.06.91 1.92 2.034 1.92s2.026-.86 2.026-1.92v-1.693c2.305-.507 4.02-2.452 4.02-4.777-.002-1.978-1.243-3.68-3.027-4.457zm-13.68 6.76c-1.044 0-1.895-.98-1.895-2.19S5 11.875 6.044 11.875s1.894.98 1.894 2.188-.85 2.19-1.894 2.19zm6.252-7.214h-.96c-2.884-.025-5.753-.252-5.752-.614 0-3.2 2.593-5.792 5.792-5.792 3.198 0 5.79 2.593 5.79 5.79 0 .407-2.312.595-4.87.615zm4.518 7.212c-1.045 0-1.894-.98-1.894-2.19s.848-2.187 1.892-2.187c1.046 0 1.896.98 1.896 2.188s-.85 2.19-1.895 2.19z"/><path fill="#E5C638" d="M19.723 32.833c.045-.35.075-.706.075-1.068 0-4.652-3.77-8.424-8.424-8.424S2.95 27.114 2.95 31.767c0 .363.02.717.067 1.067C1.24 33.61 0 35.313 0 37.29c0 2.327 1.713 4.27 4.01 4.778v1.693c0 1.064.91 1.922 2.034 1.922 1.122 0 2.032-.86 2.032-1.92V42.2h6.594v1.56c0 1.062.91 1.92 2.034 1.92s2.026-.86 2.026-1.922v-1.692c2.305-.507 4.02-2.452 4.02-4.777-.002-1.978-1.243-3.68-3.027-4.457zm-13.68 6.76c-1.044 0-1.895-.98-1.895-2.19S5 35.217 6.044 35.217s1.894.98 1.894 2.188-.85 2.19-1.894 2.19zm6.252-7.213h-.96c-2.884-.024-5.753-.25-5.752-.614 0-3.2 2.593-5.792 5.792-5.792 3.198 0 5.79 2.593 5.79 5.79 0 .408-2.312.596-4.87.616zm4.518 7.213c-1.045 0-1.894-.98-1.894-2.188 0-1.21.848-2.188 1.892-2.188 1.046 0 1.896.98 1.896 2.188-.002 1.208-.85 2.188-1.895 2.188z"/><path fill="#DC4747" d="M19.723 56.175c.045-.35.075-.706.075-1.068 0-4.652-3.77-8.424-8.424-8.424S2.95 50.455 2.95 55.11c0 .36.02.715.067 1.066C1.24 56.953 0 58.652 0 60.632c0 2.326 1.713 4.27 4.01 4.777V67.1c0 1.06.91 1.92 2.034 1.92 1.122 0 2.032-.86 2.032-1.92v-1.56h6.594v1.56c0 1.06.91 1.92 2.034 1.92s2.026-.86 2.026-1.92v-1.693c2.305-.508 4.02-2.453 4.02-4.778-.002-1.978-1.243-3.68-3.027-4.457zm-13.68 6.76c-1.044 0-1.895-.98-1.895-2.19s.854-2.188 1.896-2.188 1.894.98 1.894 2.188c0 1.21-.85 2.19-1.894 2.19zm6.252-7.214h-.96c-2.884-.023-5.753-.25-5.752-.612 0-3.2 2.593-5.792 5.792-5.792 3.198 0 5.79 2.593 5.79 5.79 0 .407-2.312.596-4.87.615zm4.518 7.215c-1.045 0-1.894-.98-1.894-2.19s.848-2.187 1.892-2.187c1.046 0 1.896.98 1.896 2.188s-.85 2.19-1.895 2.19z"/><g fill="#84C803"><path d="M116.824 13.404c-.042.014-.07.01-.078.002l-1.605-1.608c-.006-.006-.01-.023-.006-.046.01-.044.034-.092.074-.13l3.723-3.72-.058-.112c-.438-.824-.6-1.788-.458-2.712.14-.958.567-1.824 1.262-2.51.48-.48 1.045-.834 1.683-1.057.78-.27 1.62-.32 2.437-.14.832.182 1.592.598 2.19 1.204.85.844 1.31 1.964 1.31 3.155 0 1.19-.465 2.31-1.31 3.155-.48.48-1.045.832-1.68 1.055-1.163.405-2.457.31-3.544-.26l-.113-.06-3.725 3.72c-.03.028-.065.052-.1.064zm4.934-10.752c-.462.16-.876.422-1.226.77-1.27 1.27-1.27 3.33-.01 4.602.877.876 2.203 1.182 3.375.773.47-.164.876-.422 1.23-.77.613-.615.953-1.432.953-2.3.002-.87-.336-1.686-.952-2.3-.874-.88-2.197-1.183-3.37-.775z"/><path d="M122.84 1v1.914c1.188 0 2.252.756 2.645 1.878.515 1.458-.267 3.06-1.725 3.566-.3.105-.61.157-.922.157-1.19 0-2.252-.754-2.646-1.88-.237-.705-.195-1.465.124-2.137.324-.674.896-1.18 1.604-1.426.298-.106.604-.158.922-.158L122.84 1m0 0c-.514 0-1.04.086-1.552.266-2.458.856-3.756 3.542-2.9 6.002.68 1.946 2.503 3.164 4.452 3.164.515 0 1.04-.086 1.553-.264 2.458-.858 3.756-3.544 2.9-6.002C126.612 2.222 124.787 1 122.84 1z"/></g><g fill="#84C803"><path stroke="#80C31C" stroke-width=".3" stroke-miterlimit="10" d="M139.532 10.356c-2.81 0-5.083-2.28-5.083-5.084S136.722.188 139.53.188c2.804 0 5.086 2.28 5.086 5.084s-2.282 5.084-5.086 5.084zm0-9.58c-2.48 0-4.494 2.018-4.494 4.496 0 2.48 2.017 4.495 4.494 4.495 2.48 0 4.49-2.016 4.49-4.495s-2.01-4.496-4.49-4.496z"/><path d="M139.534 5.566c-.02 0-.035 0-.06-.004-.14-.024-.242-.146-.242-.29V3.12c0-.164.138-.296.3-.296.157 0 .296.132.296.295v.478l.646-1.795c.062-.152.23-.232.38-.177.15.057.23.225.182.378l-1.23 3.37c-.038.116-.15.192-.272.192z"/><circle cx="139.532" cy="1.141" r=".194"/><path d="M139.532 1.36c-.12 0-.224-.098-.224-.22 0-.12.104-.218.224-.218.115 0 .22.1.22.22s-.098.218-.22.218zm0-.387c-.1 0-.175.076-.175.17 0 .093.076.17.175.17.095 0 .17-.077.17-.17 0-.095-.075-.17-.17-.17z"/><circle cx="137.657" cy="2.021" r=".176"/><path d="M136.37 3.244c.086.05.107.157.063.24-.048.085-.156.114-.24.064-.085-.048-.107-.155-.062-.24.05-.084.156-.114.24-.064z"/><circle cx="135.402" cy="5.272" r=".194"/><path d="M135.402 5.492c-.113 0-.218-.098-.218-.22 0-.118.104-.217.218-.217.12 0 .225.098.225.218-.007.12-.104.22-.225.22zm0-.388c-.093 0-.17.076-.17.17 0 .093.077.17.17.17.1 0 .17-.077.17-.17 0-.094-.076-.17-.17-.17zM136.195 6.997c.085-.048.192-.02.24.064.05.085.02.193-.062.242-.085.05-.192.02-.24-.064-.052-.085-.022-.194.062-.24zM137.505 8.435c.048-.085.156-.112.24-.064.084.05.106.158.062.242-.05.085-.157.113-.24.064-.083-.05-.11-.156-.062-.24zM139.34 9.403c0-.107.087-.194.192-.194.104 0 .188.086.188.193s-.088.193-.188.193c-.105 0-.19-.086-.193-.193z"/><path d="M139.532 9.623c-.12 0-.224-.098-.224-.22 0-.12.104-.217.224-.217.115 0 .22.098.22.218s-.098.22-.22.22zm.003-.39c-.102 0-.178.077-.178.17 0 .093.076.17.175.17.095 0 .17-.076.17-.17 0-.092-.075-.17-.167-.17zM141.258 8.61c-.05-.083-.02-.19.062-.24.084-.048.192-.02.24.064.05.084.02.192-.062.24-.084.05-.19.02-.24-.063zM142.696 7.3c-.085-.048-.106-.156-.062-.24.048-.083.155-.112.24-.064.084.05.106.157.062.24s-.156.114-.24.065zM143.664 5.466c-.106 0-.193-.087-.193-.194 0-.106.088-.193.194-.193.104-.002.188.086.188.192.005.107-.08.193-.188.194z"/><path d="M143.664 5.492c-.12 0-.225-.1-.225-.22 0-.058.02-.112.063-.152.04-.042.096-.064.153-.064.117 0 .22.098.22.218.006.12-.092.216-.212.218zm0-.388c-.045 0-.087.018-.12.05-.03.032-.05.074-.05.12 0 .093.07.17.17.17.093 0 .17-.077.17-.17 0-.094-.075-.17-.17-.17zM142.872 3.547c-.085.05-.192.02-.24-.064-.05-.083-.02-.19.062-.24.084-.05.192-.02.24.064.05.086.022.193-.062.24zM141.562 2.11c-.048.084-.156.113-.24.063-.085-.048-.107-.156-.062-.24.045-.084.157-.112.24-.064.082.048.11.156.062.24z"/></g><path fill="#84C803" d="M146.333 3.014h3v-3h-3v3zm0 5h3v-3h-3v3zm0 5h3v-3h-3v3zm5-13v3h11.02v-3h-11.02zm0 8h11.02v-3h-11.02v3zm0 5h11.02v-3h-11.02v3zM179.947 12.94V7.065c0-.126-1.012-.21-1.136-.188l-.786.224c-.125.023-.226.146-.226.27V8.91h-1.868v-1.79c1.094-.605 2.357-2.596 2.285-3.93-.1-1.857-1.69-3.284-3.548-3.184-1.29.068-2.37.854-2.877 1.95l-1.48.438c-.555-1.23-1.822-2.057-3.25-1.98-1.855.1-3.287 1.69-3.187 3.548.065 1.333 1.705 2.44 2.854 2.925v5.634c0 .28.23.51.517.51h8.177c.283 0 .51-.23.51-.51v-1.566l1.87.042v1.62c0 .125.1.267.225.29m-3.29-10.694c.78-.04 1.446.556 1.488 1.336.042.78-.556 1.446-1.336 1.488-.78.04-1.446-.557-1.488-1.336-.043-.78.556-1.446 1.335-1.488zm-3.174.86c-.06.294-.095.164-.078.48.046.853.41 2.007.973 2.573h-2.468c.435-.6.664-1.734.622-2.527-.013-.224-.048-.004-.1-.213l1.05-.313zm-4.26-.803c.723-.04 1.338.513 1.377 1.234.04.72-.515 1.337-1.236 1.376-.72.038-1.336-.515-1.375-1.235-.038-.722.515-1.337 1.236-1.376z"/><path fill="#1E1E1E" d="M146.333 18.014h3v-3h-3v3zm0 5h3v-3h-3v3zm0 5h3v-3h-3v3zm5-13v3h11.02v-3h-11.02zm0 8h11.02v-3h-11.02v3zm0 5h11.02v-3h-11.02v3zM179.947 27.94v-5.876c0-.126-1.012-.21-1.136-.188l-.786.224c-.125.023-.226.146-.226.27v1.538h-1.868v-1.79c1.094-.605 2.357-2.596 2.285-3.93-.1-1.857-1.69-3.284-3.548-3.184-1.29.068-2.37.854-2.877 1.95l-1.48.438c-.555-1.23-1.822-2.057-3.25-1.98-1.855.1-3.287 1.69-3.187 3.548.065 1.333 1.705 2.44 2.854 2.925v5.634c0 .28.23.51.517.51h8.177c.283 0 .51-.23.51-.51v-1.566l1.87.042v1.62c0 .125.1.267.225.29m-3.29-10.695c.78-.04 1.446.557 1.488 1.337.042.78-.556 1.446-1.336 1.488-.78.04-1.446-.557-1.488-1.336-.043-.78.556-1.447 1.335-1.49zm-3.174.862c-.06.294-.095.164-.078.48.046.853.41 2.007.973 2.573h-2.468c.435-.6.664-1.734.622-2.527-.013-.224-.048-.004-.1-.213l1.05-.313zm-4.26-.804c.723-.04 1.338.514 1.377 1.235.04.72-.515 1.337-1.236 1.376-.72.037-1.336-.516-1.375-1.236-.038-.722.515-1.337 1.236-1.376z"/><path fill="#41ABE1" d="M139.065 34.668c-.742.327-1.538.55-2.372.647.854-.51 1.514-1.32 1.813-2.284-.8.475-1.68.817-2.62 1.004-.754-.802-1.826-1.303-3.015-1.303-2.277 0-4.126 1.85-4.126 4.128 0 .324.037.64.104.94-3.43-.172-6.472-1.817-8.507-4.314-.353.61-.558 1.318-.558 2.075 0 1.43.73 2.694 1.837 3.433-.682-.02-1.313-.207-1.87-.516v.05c0 2 1.422 3.668 3.31 4.047-.345.093-.712.144-1.087.144-.267 0-.52-.027-.77-.075.52 1.64 2.05 2.833 3.853 2.867-1.414 1.107-3.188 1.768-5.127 1.768-.334 0-.662-.02-.985-.057 1.825 1.172 3.995 1.856 6.328 1.856 7.59 0 11.742-6.29 11.742-11.743 0-.18-.002-.357-.012-.535.808-.582 1.507-1.308 2.06-2.137l.002.008z"/><g fill="#84C803"><path d="M134.45 86.272l-8.354-4.038v-8.47l8.353-4.038M120.414 73.764h4.753v8.47h-4.753z"/></g><path fill="#84C803" d="M120.414 92.522v16.54l13.024-8.264M128.434 123.656v4.08l3.213-2.038"/><path fill="#84C803" d="M123.79 120.083v13.106h11.637v-13.107H123.79zm10.363 10.005h-9.1v-8.626h9.1v8.626z"/><path fill="#84C803" d="M121.68 118.028h9.098v1.076h1.274v-2.455h-11.638v13.106h2.274v-3.102h-1.01M134.337 153.112l-.033-.033v-9.125H120.41v9.128l-.028.028.03.03v.75h13.892v-.746l.033-.032zm-6.92-3.13l-5.02-5.017h10.035l-5.015 5.018zm0 1.43l1.896-1.894 3.362 3.362h-10.633l3.42-3.42 1.955 1.953zm2.61-2.61l3.27-3.265v6.533l-3.27-3.267zm-8.606-3.385l3.33 3.33-3.33 3.328v-6.658z"/><g fill="#84C803"><path d="M126.93 172.66c-.307.056-.625.086-.953.086-2.414 0-4.377-1.577-4.377-3.515s1.964-3.513 4.377-3.513c.08 0 .16 0 .238.005.013 0 .02 0 .037.002l.205.013.018.002c.074.005.15.014.222.024h.01c.07.01.147.023.228.036.89.16 1.68.536 2.275 1.058.03.03.062.062.103.094l.03.03.09.087.038.04c.028.027.053.056.08.084.013.016.023.032.04.048.022.028.048.056.066.083.02.02.027.037.047.055l.062.083.042.06c.02.026.038.054.057.082.02.02.027.042.04.063.02.027.033.055.056.083.013.023.02.046.032.07.02.026.03.054.05.08.012.025.02.05.03.074.02.027.025.055.038.082.018.026.02.052.033.078l.03.08c.012.028.02.056.03.083.01.027.018.053.02.08.01.03.022.058.026.087l.02.08c.008.03.02.06.02.09.006.026.013.05.017.077.006.034.01.067.02.1.004.024.01.048.012.07l.01.115.005.06c.003.057.005.115.005.174 0 .07-.003.14-.01.208 0 .02-.002.04-.004.057-.005.055-.012.11-.02.165-.006.015-.008.03-.01.045-.012.07-.02.14-.043.208l-.003.013c-.016.065-.035.13-.056.192l-.012.035c-.053.14-.104.274-.177.404 0 0-.002 0-.002.002-.026.064-.062.13-.104.193l-.007.01c-.04.065-.08.13-.124.19-.166.234-.362.452-.586.648.34.196.723.35 1.136.45.17-.187.322-.384.456-.59 0-.002.002-.004.004-.006.058-.09.112-.18.164-.274l.014-.026c.05-.092.103-.185.145-.278.004-.008.008-.017.01-.025.086-.19.157-.39.212-.595l.008-.03c.025-.095.046-.193.064-.292l.01-.05c.015-.098.028-.196.037-.295 0-.015.002-.03.004-.045.008-.104.014-.208.014-.314 0-.075-.003-.148-.007-.22 0-.025-.003-.048-.005-.073l-.013-.146c-.003-.027-.014-.055-.017-.082l-.02-.132c-.005-.03-.01-.058-.02-.087-.01-.044-.02-.088-.022-.13-.006-.03-.012-.056-.02-.084-.014-.053-.022-.105-.043-.158-.013-.04-.02-.083-.04-.124-.012-.038-.02-.076-.03-.113-.02-.035-.028-.07-.043-.105-.018-.03-.022-.06-.034-.088-.02-.04-.033-.076-.056-.113-.012-.026-.02-.05-.03-.076-.02-.04-.037-.08-.06-.118-.01-.02-.02-.038-.027-.057-.083-.153-.178-.302-.272-.446 0-.003-.004-.006-.006-.01-.032-.045-.066-.09-.104-.134-.008-.01-.016-.022-.02-.032l-.105-.128c-.008-.01-.017-.02-.02-.03-.038-.043-.076-.088-.115-.13-.59-.647-1.374-1.158-2.28-1.47-.238-.085-.486-.154-.745-.21h-.007c-.082-.017-.166-.033-.25-.047-.01-.002-.02-.002-.026-.004-.074-.012-.15-.023-.23-.033l-.064-.007c-.062-.008-.135-.016-.2-.02l-.122-.01c-.053-.003-.104-.007-.147-.008-.09-.004-.187-.006-.275-.006-3.036 0-5.5 2.076-5.5 4.636s2.464 4.636 5.5 4.636c.102 0 .192-.002.292-.006l.062-.003c.075-.005.147-.01.227-.017.02 0 .042-.004.062-.006.07-.007.145-.016.224-.026.02 0 .04-.005.062-.008.068-.01.146-.022.216-.035.01 0 .02-.003.022-.004.312-.058.62-.137.915-.24-.447-.247-.826-.537-1.16-.862z"/><path d="M131.477 164.595c-.094 0-.188.002-.28.006h-.005c-.634.028-1.232.147-1.8.34.42.245.8.535 1.133.86.224-.04.44-.064.67-.076.1-.005.187-.01.283-.01 2.414 0 4.378 1.578 4.378 3.515s-1.964 3.515-4.378 3.515c-.08 0-.16-.002-.24-.005-.01 0-.02-.002-.028-.003-.07-.003-.145-.007-.206-.014-.006 0-.02 0-.02-.002-.072-.006-.147-.014-.223-.024-.08-.01-.155-.022-.232-.036-.89-.16-1.68-.537-2.27-1.058l-.105-.092-.028-.03-.09-.088c-.015-.014-.022-.027-.04-.042-.023-.027-.055-.057-.073-.084-.02-.016-.028-.032-.043-.05-.024-.027-.052-.055-.07-.083-.015-.018-.03-.035-.043-.053l-.062-.084c-.016-.02-.023-.04-.042-.06-.02-.027-.033-.055-.058-.083-.014-.02-.025-.042-.04-.063l-.05-.083c-.013-.022-.024-.045-.038-.067l-.044-.084c-.012-.023-.02-.046-.035-.07-.013-.028-.022-.056-.038-.083l-.03-.076c-.013-.027-.02-.054-.028-.082-.015-.027-.02-.054-.028-.08-.01-.027-.02-.054-.025-.082-.01-.028-.02-.057-.022-.085-.01-.026-.02-.053-.02-.08-.01-.03-.017-.06-.022-.09-.006-.026-.015-.05-.02-.077-.01-.032-.014-.065-.02-.098-.002-.023-.006-.047-.01-.07-.004-.04-.01-.077-.015-.115 0-.02-.005-.04-.006-.06-.003-.057-.005-.116-.005-.175 0-.086.004-.17.018-.256 0-.015.004-.03.005-.045.01-.08.02-.162.034-.242.006-.014.01-.027.012-.04.035-.17.085-.334.145-.494.003-.008.007-.017.016-.025.028-.08.064-.16.105-.237l.013-.02c.086-.162.188-.316.3-.463 0-.002.002-.004.004-.006.057-.074.11-.146.18-.215.103-.115.21-.225.328-.328-.34-.196-.726-.35-1.136-.45-.224.24-.41.498-.57.772 0 0 0 .003-.002.005-.04.07-.08.142-.117.214-.008.015-.015.03-.02.044-.03.06-.063.123-.09.186-.008.015-.016.03-.02.044-.033.076-.062.153-.09.232v.003c-.027.075-.05.15-.073.227l-.015.055c-.02.067-.036.134-.053.202-.006.013-.01.025-.013.038-.015.08-.022.16-.04.24l-.008.052c-.008.064-.015.128-.02.193 0 .022-.003.045-.012.067-.004.082-.008.163-.008.246 0 .074.003.147.007.22 0 .025.01.048.01.072l.014.146.01.085c.006.044.015.088.02.132l.016.086.027.13c.006.028.012.056.02.083l.04.155c.015.044.027.087.042.13.012.037.023.074.036.11l.042.108c.01.03.022.058.035.086l.05.114c.01.025.022.05.034.074l.06.12c.015.017.02.035.028.053.084.157.177.308.28.455.034.048.063.095.104.14.006.01.02.02.02.028.035.045.064.09.104.133.006.01.02.017.02.024.6.71 1.43 1.27 2.397 1.606.242.083.49.153.747.207h.005c.083.02.167.034.252.05.016 0 .02 0 .03.003.076.012.153.024.232.034l.062.007c.067.01.134.017.2.022l.125.008.146.01c.095.003.187.004.274.004 3.037 0 5.5-2.076 5.5-4.636.003-2.558-2.46-4.633-5.497-4.633z"/></g><path fill="#84C803" d="M32.818 73.318C27.396 73.318 23 68.923 23 63.5c0-5.422 4.396-9.818 9.812-9.818 3.688 0 6.896 2.033 8.57 5.035.41-.07.822-.127 1.25-.127 4.06 0 7.36 3.298 7.36 7.365 0 4.066-3.3 7.362-7.36 7.362h-9.814zm9.82-2.454c2.712 0 4.91-2.198 4.91-4.908 0-2.71-2.198-4.91-4.91-4.91-.983 0-1.894.296-2.66.793-.755-3.264-3.667-5.702-7.16-5.702-4.06 0-7.355 3.297-7.355 7.364 0 4.066 3.3 7.362 7.356 7.362h9.818z"/><path fill="#3981BE" d="M83.5 20.125c-3.66 0-6.625-2.966-6.625-6.625S79.84 6.875 83.5 6.875c.417 0 .816.042 1.22.118-.074.32-.117.647-.117.986 0 2.44 1.98 4.416 4.418 4.416.34 0 .67-.042.987-.115.074.396.117.803.117 1.22 0 3.66-2.965 6.625-6.624 6.625zm-.986-10.927c-1.965.45-3.43 2.203-3.43 4.303 0 2.44 1.978 4.416 4.417 4.416 2.1 0 3.854-1.465 4.3-3.43-2.68-.497-4.79-2.607-5.286-5.288zM79.818 73.318C74.396 73.318 70 68.923 70 63.5s4.396-9.818 9.812-9.818c3.688 0 6.896 2.033 8.57 5.034.408-.07.822-.126 1.248-.126 4.066 0 7.363 3.298 7.363 7.365 0 4.066-3.3 7.363-7.363 7.363h-9.812zm9.82-2.454c2.712 0 4.91-2.198 4.91-4.907 0-2.71-2.2-4.91-4.91-4.91-.983 0-1.893.295-2.66.792-.755-3.264-3.667-5.702-7.16-5.702-4.063 0-7.357 3.296-7.357 7.364 0 4.066 3.3 7.363 7.357 7.363h9.82z"/><path fill="#84C803" d="M45.09 270.438v-2.688c1.466-.85 2.454-2.432 2.454-4.248 0-2.71-2.198-4.91-4.908-4.91-.983 0-1.892.3-2.66.797-.756-3.267-3.667-5.704-7.16-5.704-4.06 0-7.354 3.312-7.354 7.362 0 2.18.944 4.132 2.454 5.48v3.017c-2.938-1.7-4.91-4.863-4.91-8.494 0-5.42 4.396-9.815 9.812-9.815 3.688 0 6.896 2.03 8.57 5.035.41-.062.822-.127 1.25-.127 4.065-.002 7.362 3.297 7.362 7.362 0 3.2-2.052 5.918-4.91 6.933zm-13.5-4.484c.678 0 1.228.55 1.228 1.23 0 .677-.548 1.228-1.228 1.228-.678 0-1.23-.547-1.23-1.23.004-.678.553-1.228 1.23-1.228zm0 4.91c.678 0 1.228.55 1.228 1.228 0 .68-.548 1.23-1.228 1.23-.678 0-1.23-.55-1.23-1.23.004-.678.553-1.228 1.23-1.228zm4.91-2.455c.678 0 1.227.546 1.227 1.228 0 .676-.55 1.23-1.227 1.23-.685 0-1.23-.55-1.23-1.23.002-.68.552-1.23 1.23-1.23zm0 4.906c.678 0 1.227.55 1.227 1.23s-.55 1.228-1.227 1.228c-.685 0-1.23-.55-1.23-1.23.002-.676.552-1.228 1.23-1.228zm4.91-7.362c.677 0 1.227.55 1.227 1.23 0 .677-.55 1.228-1.228 1.228-.686 0-1.23-.547-1.23-1.23.002-.678.552-1.228 1.23-1.228zm0 4.91c.677 0 1.227.55 1.227 1.228 0 .68-.55 1.23-1.228 1.23-.686 0-1.23-.55-1.23-1.23.002-.678.552-1.228 1.23-1.228z"/><path fill="#3981BE" d="M92.09 270.438v-2.688c1.466-.85 2.455-2.432 2.455-4.248 0-2.71-2.198-4.91-4.91-4.91-.982 0-1.89.3-2.66.797-.754-3.267-3.666-5.704-7.158-5.704-4.062 0-7.356 3.312-7.356 7.362 0 2.18.945 4.132 2.455 5.48v3.017c-2.938-1.7-4.91-4.863-4.91-8.494 0-5.42 4.397-9.815 9.813-9.815 3.688 0 6.896 2.03 8.57 5.035.41-.062.822-.127 1.248-.127 4.067 0 7.364 3.297 7.364 7.362 0 3.2-2.053 5.918-4.91 6.933zm-13.5-4.484c.677 0 1.228.55 1.228 1.23 0 .677-.55 1.228-1.228 1.228-.678 0-1.23-.547-1.23-1.23.004-.678.553-1.228 1.23-1.228zm0 4.91c.677 0 1.228.55 1.228 1.228 0 .68-.55 1.23-1.228 1.23-.678 0-1.23-.55-1.23-1.23.004-.678.553-1.228 1.23-1.228zm4.91-2.455c.678 0 1.227.546 1.227 1.228 0 .676-.55 1.23-1.227 1.23-.685 0-1.23-.55-1.23-1.23.002-.68.552-1.23 1.23-1.23zm0 4.906c.678 0 1.227.55 1.227 1.23s-.55 1.228-1.227 1.228c-.685 0-1.23-.55-1.23-1.23.002-.676.552-1.228 1.23-1.228zm4.91-7.362c.676 0 1.227.55 1.227 1.23 0 .677-.55 1.228-1.228 1.228-.686 0-1.23-.547-1.23-1.23.002-.678.552-1.228 1.23-1.228zm0 4.91c.676 0 1.227.55 1.227 1.228 0 .68-.55 1.23-1.228 1.23-.686 0-1.23-.55-1.23-1.23.002-.678.552-1.228 1.23-1.228z"/><path fill="#84C803" d="M45.092 219.208v-2.688c1.466-.85 2.454-2.432 2.454-4.248 0-2.71-2.198-4.91-4.91-4.91-.982 0-1.89.294-2.66.79-.754-3.263-3.666-5.7-7.158-5.7-4.062 0-7.357 3.296-7.357 7.362 0 2.178.954 4.13 2.457 5.478v3.017c-2.938-1.7-4.91-4.863-4.91-8.495 0-5.42 4.395-9.817 9.81-9.817 3.69 0 6.897 2.03 8.57 5.035.408-.07.822-.125 1.247-.125 4.068 0 7.365 3.297 7.365 7.365 0 3.204-2.048 5.922-4.908 6.935zm-13.5-6.936c.677 0 1.227.55 1.227 1.227v9.817c0 .678-.55 1.228-1.23 1.228-.675 0-1.225-.55-1.225-1.228V213.5c0-.678.55-1.228 1.226-1.228zm4.91 2.456c.676 0 1.228.55 1.228 1.227v9.818c0 .678-.55 1.228-1.23 1.228-.684 0-1.228-.548-1.228-1.227v-9.818c0-.68.55-1.227 1.23-1.227zm4.91-2.456c.675 0 1.226.55 1.226 1.227v9.817c0 .678-.55 1.228-1.227 1.228-.685 0-1.228-.55-1.228-1.228V213.5c.002-.678.55-1.228 1.23-1.228z"/><path fill="#3981BE" d="M92.092 219.208v-2.688c1.466-.85 2.455-2.43 2.455-4.248 0-2.71-2.2-4.91-4.91-4.91-.983 0-1.892.294-2.66.792-.755-3.264-3.667-5.7-7.16-5.7-4.062 0-7.356 3.295-7.356 7.362 0 2.176.954 4.13 2.456 5.476v3.017c-2.938-1.7-4.91-4.863-4.91-8.494 0-5.422 4.396-9.818 9.812-9.818 3.688 0 6.896 2.03 8.57 5.035.41-.07.823-.125 1.25-.125 4.064 0 7.36 3.296 7.36 7.364.002 3.205-2.05 5.924-4.906 6.936zm-13.5-6.936c.676 0 1.227.55 1.227 1.227v9.817c0 .68-.55 1.23-1.23 1.23-.676 0-1.228-.55-1.228-1.23V213.5c.002-.678.553-1.228 1.23-1.228zm4.908 2.456c.678 0 1.228.55 1.228 1.227v9.818c0 .678-.55 1.228-1.228 1.228-.685 0-1.23-.548-1.23-1.227v-9.818c.003-.678.553-1.227 1.23-1.227zm4.91-2.456c.676 0 1.227.55 1.227 1.227v9.817c0 .68-.55 1.23-1.228 1.23-.686 0-1.23-.55-1.23-1.23V213.5c.002-.678.552-1.228 1.23-1.228z"/><path fill="#84C803" d="M42.634 169.636h-.65l2.2-2.707c1.95-.65 3.36-2.488 3.36-4.658 0-2.71-2.197-4.908-4.907-4.908-.984 0-1.893.295-2.66.792-.755-3.263-3.666-5.7-7.158-5.7-4.063 0-7.357 3.297-7.357 7.363 0 3.34 2.23 6.16 5.273 7.06l-.82 2.318c-4.002-1.24-6.91-4.97-6.91-9.38 0-5.42 4.397-9.816 9.813-9.816 3.687 0 6.895 2.03 8.57 5.034.406-.07.82-.125 1.248-.125 4.066 0 7.363 3.297 7.363 7.365-.002 4.065-3.3 7.36-7.366 7.36zm-7.363-8.592h6.145l-3.688 6.137h4.296L34.046 177l2.21-7.363h-4.05l3.065-8.59z"/><path fill="#3981BE" d="M89.636 169.637h-.65l2.2-2.707c1.95-.65 3.36-2.487 3.36-4.657 0-2.71-2.198-4.908-4.91-4.908-.983 0-1.892.295-2.66.792-.754-3.263-3.665-5.7-7.157-5.7-4.063 0-7.358 3.296-7.358 7.363 0 3.342 2.23 6.162 5.273 7.06l-.82 2.318c-4-1.24-6.907-4.97-6.907-9.38 0-5.42 4.396-9.818 9.812-9.818 3.688 0 6.896 2.032 8.57 5.036.408-.07.822-.127 1.248-.127 4.067 0 7.364 3.295 7.364 7.363 0 4.067-3.298 7.364-7.366 7.364zm-7.363-8.592h6.143l-3.688 6.137h4.294L81.045 177l2.21-7.364h-4.05l3.068-8.59z"/><path fill="#84C803" d="M48.77 370.864H24.23c-.678 0-1.228-.55-1.228-1.23 0-.678.55-1.228 1.228-1.228h24.545c.684 0 1.23.548 1.23 1.23-.003.678-.55 1.228-1.232 1.228zm0-4.91H24.23c-.678 0-1.228-.548-1.228-1.228 0-.688.55-1.23 1.228-1.23h24.545c.684 0 1.23.55 1.23 1.23-.003.68-.55 1.23-1.232 1.23zm-6.133-7.362c-.983 0-1.893.297-2.66.793-.756-3.264-3.667-5.7-7.158-5.7-4.063 0-7.356 3.302-7.356 7.362H23.01c0-5.422 4.395-9.816 9.81-9.816 3.69 0 6.897 2.028 8.572 5.034.408-.07.82-.125 1.248-.125 3.204 0 5.923 2.056 6.938 4.907H46.89c-.857-1.467-2.438-2.455-4.253-2.455zm-18.41 14.726h24.546c.684 0 1.23.547 1.23 1.227s-.552 1.23-1.23 1.23H24.228c-.678 0-1.228-.548-1.228-1.23 0-.678.548-1.227 1.228-1.227z"/><path fill="#3981BE" d="M95.772 370.86H71.23c-.68 0-1.23-.55-1.23-1.228 0-.678.55-1.23 1.23-1.23H95.77c.684 0 1.23.56 1.23 1.23-.002.68-.55 1.23-1.23 1.23zm0-4.906H71.23c-.68 0-1.23-.55-1.23-1.23 0-.674.55-1.228 1.23-1.228H95.77c.684 0 1.23.55 1.23 1.23-.002.678-.55 1.228-1.23 1.228zm-6.137-7.364c-.982 0-1.89.297-2.66.793-.755-3.262-3.666-5.7-7.158-5.7-4.062 0-7.356 3.302-7.356 7.363H70c0-5.422 4.396-9.813 9.812-9.813 3.688 0 6.896 2.024 8.57 5.03.408-.07.822-.126 1.248-.126 3.205 0 5.924 2.06 6.936 4.91H93.88c-.847-1.47-2.428-2.457-4.245-2.457zM71.23 373.316H95.77c.684 0 1.23.547 1.23 1.228 0 .68-.552 1.23-1.23 1.23H71.23c-.68 0-1.23-.55-1.23-1.23 0-.678.55-1.228 1.23-1.228z"/><path fill="#84C803" d="M48.875 14.625h-2.25c-.622 0-1.125-.504-1.125-1.125s.504-1.125 1.125-1.125h2.25c.62 0 1.125.504 1.125 1.125s-.503 1.125-1.125 1.125zm-4.42-7.49c-.438.44-1.152.44-1.59 0-.438-.437-.438-1.15 0-1.59l1.59-1.59c.438-.44 1.147-.44 1.593 0 .437.438.437 1.15 0 1.59l-1.592 1.59zM36.5 20.25c-3.73 0-6.75-3.022-6.75-6.75s3.02-6.75 6.75-6.75 6.75 3.022 6.75 6.75-3.02 6.75-6.75 6.75zM36.5 9c-2.485 0-4.5 2.015-4.5 4.5s2.016 4.5 4.5 4.5c2.48 0 4.5-2.015 4.5-4.5S38.987 9 36.5 9zm0-4.5c-.62 0-1.125-.505-1.125-1.125v-2.25C35.375.505 35.88 0 36.5 0c.622 0 1.125.504 1.125 1.125v2.25c0 .62-.504 1.125-1.125 1.125zm-7.956 2.636l-1.59-1.592c-.44-.44-.44-1.15 0-1.59.438-.44 1.146-.44 1.59 0l1.592 1.59c.44.44.44 1.152 0 1.592-.44.44-1.152.44-1.592 0zM27.5 13.5c0 .62-.505 1.125-1.125 1.125h-2.25c-.62 0-1.125-.504-1.125-1.125s.504-1.125 1.125-1.125h2.25c.622 0 1.125.504 1.125 1.125zm1.044 6.364c.438-.44 1.146-.44 1.592 0 .44.438.44 1.15 0 1.59l-1.592 1.59c-.438.44-1.152.44-1.59 0-.44-.438-.44-1.15 0-1.59l1.59-1.59zM36.5 22.5c.622 0 1.125.503 1.125 1.124v2.25c0 .622-.504 1.126-1.125 1.126s-1.125-.504-1.125-1.125v-2.25c0-.622.504-1.125 1.125-1.125zm7.956-2.636l1.592 1.59c.437.44.437 1.152 0 1.59-.44.44-1.155.44-1.592 0l-1.59-1.59c-.44-.44-.44-1.152 0-1.59.438-.44 1.15-.44 1.59 0zM49 114.5h-2c-.552 0-1-.448-1-1 0-.553.44-1 1-1h2c.552 0 1 .447 1 1 0 .552-.448 1-1 1zm-3.93-6.658c-.39.39-1.02.39-1.414 0-.39-.39-.39-1.024 0-1.415l1.415-1.414c.397-.39 1.024-.39 1.415 0 .396.39.396 1.023 0 1.414l-1.414 1.415zm-1.473 7.805C44.472 116.69 45 118.033 45 119.5c0 3.313-2.688 6-6 6h-8c-4.418 0-8-3.58-8-8 0-4.418 3.582-8 8-8 .786 0 1.546.116 2.262.326 1.098-1.413 2.81-2.328 4.74-2.328 3.31 0 6 2.688 6 6-.002.758-.148 1.48-.405 2.15zM25 117.5c0 3.313 2.686 6 6 6h8c2.21 0 4-1.792 4-4s-1.79-4-4-4c-.8 0-1.542.24-2.167.644-.615-2.66-2.987-4.645-5.833-4.645-3.315 0-6 2.685-6 6zm13-8c-1.108 0-2.11.45-2.832 1.174 1.17.718 2.142 1.727 2.812 2.927.332-.056.668-.1 1.02-.1 1.063 0 2.06.278 2.926.762.048-.247.076-.502.076-.763-.002-2.21-1.794-4-4.003-4zm0-4.002c-.56 0-1-.447-1-1v-2c0-.552.44-1 1-1 .55 0 1 .448 1 1v2c0 .553-.448 1-1 1zm-7.072 2.344l-1.415-1.415c-.39-.39-.39-1.024 0-1.414.39-.39 1.024-.39 1.415 0l1.413 1.414c.392.39.392 1.024 0 1.415-.39.39-1.022.39-1.412 0z"/><path fill="#ADC38C" d="M49 464.5h-2c-.552 0-1-.447-1-1.003 0-.548.44-1 1-1h2c.552 0 1 .45 1 1 0 .556-.448 1.004-1 1.004zm-3.93-6.656c-.39.396-1.02.396-1.414 0-.39-.39-.39-1.02 0-1.414l1.415-1.414c.397-.39 1.024-.39 1.415 0 .396.396.396 1.023 0 1.414l-1.414 1.414zm-1.473 7.804c.875 1.042 1.404 2.383 1.404 3.85 0 3.314-2.687 5.998-6 5.998h-8c-4.418 0-8-3.583-8-8 0-4.42 3.583-8.003 8-8.003.786 0 1.546.118 2.263.326 1.098-1.41 2.81-2.326 4.738-2.326 3.313 0 6.002 2.688 6.002 5.998-.002.766-.148 1.488-.405 2.156zM25 467.5c0 3.314 2.685 6 6 6h8c2.21 0 4-1.793 4-4 0-2.21-1.79-4.004-4-4.004-.8 0-1.542.242-2.167.645-.614-2.645-2.987-4.645-5.833-4.645-3.314.007-6 2.69-6 6.006zm13-8c-1.11 0-2.11.45-2.832 1.175 1.17.72 2.142 1.73 2.812 2.925.332-.054.668-.102 1.02-.102 1.063 0 2.06.28 2.926.763.048-.248.075-.5.075-.762 0-2.206-1.79-3.997-4-3.997zm0-4.002c-.56 0-1-.443-1-1v-2c0-.546.44-.994 1-.994.55 0 1 .448 1 .995v2c0 .553-.448.998-1 .998zm-7.072 2.346l-1.414-1.414c-.39-.39-.39-1.02 0-1.414.39-.39 1.023-.39 1.414 0l1.413 1.414c.392.396.392 1.023 0 1.414-.388.39-1.02.39-1.412 0z"/><path fill="#ABC0D2" d="M91 466.012c.688.98 1.095 2.168 1.095 3.456 0 3.328-2.7 6.028-6.027 6.028h-8.03c-4.437 0-8.034-3.595-8.034-8.036 0-4.44 3.597-8.038 8.035-8.038 1.005 0 1.965.192 2.853.526.82-2.354 3.054-4.042 5.688-4.042.384 0 .75.043 1.107.104-.062.283-.104.59-.104.897 0 2.22 1.8 4.018 4.017 4.018.312 0 .61-.04.898-.104.062.355.104.73.104 1.105-.004 1.584-.612 3.014-1.6 4.087zm-18.994 1.448c0 3.324 2.698 6.024 6.027 6.024h8.03c2.226 0 4.02-1.812 4.02-4.02s-1.798-4.018-4.02-4.018c-.806 0-1.55.23-2.178.646-.618-2.67-3-4.667-5.854-4.667-3.326.008-6.024 2.705-6.024 6.035zm9.82-7.08zm3.847-2.36c-1.457.34-2.604 1.467-2.98 2.897.97.692 1.772 1.587 2.355 2.622.333-.058.67-.103 1.02-.103 1.315 0 2.53.425 3.522 1.14.432-.49.747-1.088.896-1.744-2.44-.454-4.36-2.372-4.813-4.812z"/><path fill="#84C803" d="M45.09 319.207v-2.688c1.466-.855 2.454-2.44 2.454-4.25 0-2.71-2.197-4.905-4.908-4.905-.983 0-1.893.293-2.66.787-.755-3.27-3.667-5.7-7.16-5.7-4.06 0-7.354 3.3-7.354 7.362 0 2.178.943 4.13 2.453 5.48v3.017c-2.937-1.698-4.908-4.853-4.908-8.49 0-5.425 4.396-9.813 9.812-9.813 3.687 0 6.895 2.03 8.57 5.035.407-.07.82-.125 1.25-.125 4.065 0 7.36 3.297 7.36 7.354 0 3.207-2.05 5.925-4.91 6.937zm-13.5.428c-.676 0-.613-.547-.613-1.225v-4.912c0-.676-.062-1.227.613-1.227.678 0 .614.548.614 1.228v4.912c0 .676.064 1.225-.614 1.225zm0 2.455c.678 0 1.228.55 1.228 1.23 0 .687-.55 1.228-1.228 1.228-.676 0-1.23-.547-1.23-1.23.003-.68.552-1.228 1.23-1.228zm4.91 0c-.685 0-.614-.55-.614-1.23v-4.907c0-.676-.064-1.23.614-1.23.677 0 .606.555.606 1.23v4.908c.006.68.07 1.23-.606 1.23zm0 2.455c.677 0 1.227.55 1.227 1.23 0 .687-.55 1.228-1.227 1.228-.685 0-1.23-.55-1.23-1.23.002-.677.55-1.228 1.23-1.228zm4.91-4.91c-.685 0-.615-.547-.615-1.225v-4.912c0-.676-.063-1.227.614-1.227.676 0 .605.548.605 1.228v4.912c.007.676.07 1.225-.606 1.225zm0 2.455c.676 0 1.227.55 1.227 1.23 0 .687-.55 1.228-1.228 1.228-.686 0-1.23-.547-1.23-1.23.002-.68.55-1.228 1.23-1.228z"/><path fill="#3981BE" d="M92.09 319.207v-2.688c1.466-.855 2.455-2.44 2.455-4.25 0-2.71-2.198-4.905-4.91-4.905-.982 0-1.892.293-2.658.787-.755-3.27-3.667-5.7-7.16-5.7-4.06 0-7.355 3.3-7.355 7.362 0 2.178.944 4.13 2.454 5.48v3.017c-2.937-1.698-4.908-4.853-4.908-8.49 0-5.425 4.396-9.813 9.812-9.813 3.688 0 6.896 2.03 8.572 5.035.407-.07.82-.125 1.248-.125 4.067 0 7.363 3.297 7.363 7.354-.004 3.207-2.056 5.925-4.913 6.937zm-13.5.428c-.678 0-.614-.547-.614-1.225v-4.912c0-.676-.062-1.227.613-1.227.674 0 .613.548.613 1.228v4.912c0 .676.064 1.225-.614 1.225zm0 2.455c.676 0 1.227.55 1.227 1.23 0 .687-.55 1.228-1.228 1.228-.678 0-1.23-.547-1.23-1.23.003-.677.552-1.228 1.23-1.228zm4.91 0c-.685 0-.614-.55-.614-1.23v-4.907c0-.676-.064-1.23.614-1.23.677 0 .605.555.605 1.23v4.908c.007.68.072 1.23-.605 1.23zm0 2.455c.677 0 1.227.55 1.227 1.23 0 .687-.55 1.228-1.227 1.228-.685 0-1.23-.55-1.23-1.23.002-.677.55-1.228 1.23-1.228zm4.907-4.91c-.683 0-.613-.547-.613-1.225v-4.912c0-.676-.063-1.227.613-1.227.678 0 .608.548.608 1.228v4.912c.007.676.07 1.225-.608 1.225zm0 2.455c.678 0 1.228.55 1.228 1.23 0 .687-.55 1.228-1.228 1.228-.683 0-1.23-.547-1.23-1.23.005-.68.554-1.228 1.23-1.228zM91 116.21c.688.98 1.096 2.17 1.096 3.46 0 3.327-2.7 6.027-6.027 6.027h-8.03c-4.44 0-8.036-3.597-8.036-8.038 0-4.44 3.597-8.037 8.035-8.037 1.005 0 1.966.19 2.852.526.822-2.353 3.054-4.043 5.688-4.043.384 0 .748.04 1.104.107-.062.288-.104.59-.104.897 0 2.22 1.8 4.02 4.017 4.02.31 0 .61-.04.898-.105.062.362.104.73.104 1.11-.002 1.575-.61 3.005-1.6 4.076zm-18.995 1.45c0 3.328 2.698 6.025 6.028 6.025h8.03c2.225 0 4.02-1.798 4.02-4.017 0-2.22-1.798-4.018-4.02-4.018-.806 0-1.55.242-2.178.648-.62-2.67-3-4.666-5.854-4.666-3.327 0-6.025 2.7-6.025 6.027zm9.82-7.08zm3.848-2.36c-1.457.334-2.604 1.462-2.98 2.902.97.688 1.772 1.583 2.355 2.623.334-.057.672-.103 1.02-.103 1.315 0 2.53.426 3.522 1.14.43-.493.746-1.09.896-1.748-2.438-.455-4.36-2.373-4.813-4.814z"/><g fill="#80C31C"><path d="M36.958 420.37c-.124-.17-.232-.353-.327-.534-.01-.02-.02-.04-.026-.057-.085-.173-.158-.35-.218-.526l-.02-.06c-.06-.19-.103-.37-.142-.564 0-.012-.004-.02-.006-.036-.032-.197-.05-.402-.05-.605H24.19c-.65 0-1.188.534-1.188 1.19 0 .655.534 1.19 1.188 1.19h12.768c0 .003 0 .003 0 0zM32.538 403.68c3.393 0 6.22 2.37 6.955 5.54.74-.48 1.628-.77 2.583-.77 1.764 0 3.3.96 4.126 2.384h2.605c-.98-2.777-3.625-4.77-6.73-4.77-.415 0-.816.055-1.212.117-1.637-2.91-4.746-4.895-8.326-4.895-5.272 0-9.54 4.27-9.54 9.537h2.386c-.002-3.94 3.2-7.142 7.152-7.142zM42.23 424.43c0-.02.007-.05.008-.062.014-.104.02-.188.03-.273.022-.12.062-.24.104-.354l-1.345-.687c-.425.616-1.136.99-1.916.99-.387 0-.77-.103-1.115-.275-.123-.062-.238-.146-.354-.224-.042-.032-.08-.067-.12-.104-.06-.054-.118-.104-.17-.157-.05-.057-.094-.104-.136-.15-.037-.047-.07-.103-.104-.147-.044-.062-.09-.128-.128-.19h-12.79c-.652 0-1.188.53-1.188 1.19 0 .654.534 1.187 1.188 1.187h18.13c-.067-.267-.1-.505-.092-.743zM38.056 414.61c.042-.026.085-.063.128-.077.07-.04.146-.076.216-.11.066-.034.14-.063.2-.093.063-.025.124-.053.188-.074.09-.035.185-.062.272-.09.046-.014.1-.027.145-.04.146-.038.295-.07.44-.087.106-.204.23-.392.356-.575.057-.082.112-.164.172-.244h-15.98c-.65 0-1.188.536-1.188 1.192 0 .66.534 1.193 1.188 1.193h12.77c.298-.402.67-.736 1.094-.996z"/></g><path fill="#EE1D46" d="M47.343 412.523c-.727-.383-1.505-.563-2.27-.563-1.775 0-3.5.972-4.38 2.658-.097.188-.178.38-.25.57-.064-.005-.14-.007-.212-.007-1.057 0-2.058.54-2.56 1.507-.627 1.205-.27 2.68.793 3.562l-.458.878c-.286.554-.046 1.244.536 1.547.185.104.382.146.567.146.414 0 .812-.21 1.008-.59l.42-.812 3.425 1.78-.42.81c-.288.562-.047 1.244.536 1.55.185.104.38.146.565.146.416 0 .813-.21 1.005-.59l.457-.88c.27.063.544.105.814.105 1.06 0 2.06-.544 2.56-1.507.534-1.022.354-2.246-.36-3.13.112-.17.23-.352.32-.536 1.263-2.41.323-5.388-2.093-6.644zm-5.582 6.373c-.24.463-.685.73-1.12.73-.155 0-.31-.038-.454-.105-.543-.28-.718-1.02-.392-1.647.24-.46.685-.732 1.12-.732.148 0 .31.036.454.11.543.28.72 1.02.393 1.646zm5.59 2.91c-.238.46-.683.735-1.118.735-.15 0-.31-.036-.454-.11-.543-.27-.72-1.02-.393-1.646.24-.46.685-.734 1.12-.734.157 0 .313.035.455.11.544.28.718 1.018.39 1.645zm.725-3.345c-.02.034-.062.048-.126.048-.368 0-1.44-.465-2.57-1.043l-.498-.258c-1.49-.793-2.918-1.686-2.82-1.873.604-1.162 1.785-1.826 3.01-1.826.527 0 1.062.123 1.562.383 1.658.864 2.304 2.91 1.44 4.57z"/><g fill="#3981BE"><path d="M83.958 420.37c-.124-.17-.232-.353-.327-.534-.01-.02-.02-.04-.026-.057-.085-.173-.158-.35-.218-.526l-.02-.06c-.06-.19-.103-.37-.142-.564 0-.012-.004-.02-.006-.036-.032-.197-.05-.402-.05-.605H71.19c-.65 0-1.188.534-1.188 1.19 0 .655.534 1.19 1.188 1.19h12.768c0 .003 0 .003 0 0zM79.538 403.68c3.393 0 6.22 2.37 6.955 5.54.74-.48 1.628-.77 2.583-.77 1.764 0 3.3.96 4.126 2.384h2.605c-.98-2.777-3.625-4.77-6.73-4.77-.415 0-.816.055-1.212.117-1.637-2.91-4.746-4.895-8.326-4.895-5.272 0-9.54 4.27-9.54 9.537h2.386c-.002-3.94 3.2-7.142 7.152-7.142zM89.23 424.43c0-.02.007-.05.008-.062.014-.104.02-.188.03-.273.022-.12.062-.24.104-.354l-1.345-.687c-.425.616-1.136.99-1.916.99-.387 0-.77-.103-1.115-.275-.123-.062-.238-.146-.354-.224-.042-.032-.08-.067-.12-.104-.06-.054-.118-.104-.17-.157-.05-.057-.094-.104-.136-.15-.037-.047-.07-.103-.104-.147-.045-.062-.09-.128-.128-.19h-12.79c-.652 0-1.188.53-1.188 1.19 0 .654.534 1.187 1.188 1.187h18.13c-.067-.267-.1-.505-.092-.743zM85.056 414.61c.042-.026.085-.063.128-.077.07-.04.146-.076.216-.11.066-.034.14-.063.2-.093.063-.025.124-.053.188-.074.09-.035.185-.062.272-.09.046-.014.1-.027.145-.04.146-.038.295-.07.44-.087.106-.204.23-.392.356-.575.057-.082.112-.164.172-.244h-15.98c-.65 0-1.188.536-1.188 1.192 0 .66.534 1.193 1.188 1.193h12.77c.298-.402.67-.736 1.094-.996z"/></g><path fill="#EE1D46" d="M94.343 412.523c-.727-.383-1.505-.563-2.27-.563-1.775 0-3.5.972-4.38 2.658-.097.188-.178.38-.25.57-.064-.005-.14-.007-.212-.007-1.057 0-2.058.54-2.56 1.507-.627 1.205-.264 2.68.793 3.562l-.458.878c-.286.554-.046 1.244.536 1.547.185.104.382.146.567.146.414 0 .812-.21 1.008-.59l.42-.812 3.425 1.78-.42.81c-.288.562-.047 1.244.536 1.55.185.104.38.146.565.146.416 0 .813-.21 1.005-.59l.457-.88c.27.063.544.105.814.105 1.06 0 2.06-.544 2.56-1.507.534-1.022.354-2.246-.36-3.13.112-.17.23-.352.32-.536 1.263-2.41.323-5.388-2.093-6.644zm-5.582 6.373c-.24.463-.685.73-1.12.73-.155 0-.31-.038-.454-.105-.542-.28-.718-1.02-.392-1.647.24-.46.685-.734 1.12-.734.148 0 .31.036.454.11.543.28.72 1.02.393 1.646zm5.59 2.91c-.238.46-.683.735-1.118.735-.15 0-.31-.036-.454-.11-.543-.27-.72-1.02-.393-1.646.24-.46.685-.734 1.12-.734.157 0 .313.035.455.11.544.28.718 1.018.39 1.645zm.725-3.345c-.02.034-.062.048-.126.048-.368 0-1.44-.465-2.57-1.043l-.498-.258c-1.49-.793-2.918-1.686-2.82-1.873.604-1.162 1.785-1.826 3.01-1.826.527 0 1.062.123 1.562.383 1.658.864 2.304 2.91 1.44 4.57z"/><g fill="#84C803"><path d="M185.212 10.816c0-3.002 2.144-3.945 4.788-3.945s4.788.944 4.788 3.946"/><circle cx="190" cy="3.5" r="2.884"/></g><g fill="#84C803"><path d="M132.54 188.854v-4.13H122.18v4.13h-1.818v6.897h1.813v-1.886h10.37v1.887h1.81v-6.896h-1.812zm-9.003-2.77h7.645v2.77h-7.645v-2.77z"/><path d="M123.537 195.04h7.623v2.442h-7.623z"/></g><path fill="#888" d="M166.064 34.668c-.74.327-1.537.55-2.37.647.853-.51 1.513-1.32 1.81-2.284-.798.475-1.68.817-2.618 1.004-.755-.802-1.826-1.303-3.016-1.303-2.278 0-4.127 1.85-4.127 4.128 0 .324.03.64.104.94-3.43-.172-6.472-1.817-8.506-4.314-.353.61-.56 1.318-.56 2.075 0 1.43.728 2.694 1.84 3.433-.682-.02-1.312-.207-1.87-.516v.05c0 2 1.423 3.668 3.31 4.047-.344.093-.71.144-1.086.144-.267 0-.52-.026-.77-.075.52 1.64 2.05 2.834 3.853 2.867-1.414 1.107-3.19 1.768-5.127 1.768-.333 0-.66-.02-.984-.057 1.825 1.173 3.995 1.856 6.328 1.856 7.59 0 11.743-6.29 11.743-11.743 0-.18-.002-.357-.013-.535.808-.582 1.507-1.308 2.06-2.137v.008zM175.183 37.655h-1.97v3.218h1.97v9.453h3.79v-9.493h2.647l.275-3.178h-2.927v-1.81c0-.75.15-1.046.875-1.046h2.052v-3.3h-2.625c-2.814 0-4.093 1.242-4.093 3.62.006 2.072.006 2.535.006 2.535z"/><g fill="#84C803"><path d="M134.414 223.44h-6.525v-1.165h6.524v1.165zm0-2.152h-2.543v-1.165h2.543v1.165zm0-2.15h-2.543v-1.164h2.543v1.165zm-1.62-6.583v3.33h3.334v9.563h-9.917v-12.894h6.583m.97-1.553h-9.103v16h13.02v-12.086L133.765 211zm-2.943 10.288h-2.932v-3.313h2.932v3.313z"/><path d="M119.186 215.426l4.067 4.06v-2.685h6.147v-2.75h-6.147v-2.686"/></g><g fill="#84C803"><path d="M155 76.53c2.566 0 4.66-2.085 4.66-4.66v-9.358c0-2.573-2.094-4.66-4.66-4.66-2.573 0-4.66 2.087-4.66 4.66v9.36c0 2.573 2.087 4.658 4.66 4.658z"/><path d="M161.832 69.977v1.9c0 3.768-3.064 6.832-6.832 6.832-3.77 0-6.832-3.065-6.832-6.833v-1.9H146.3v1.9c0 4.48 3.407 8.18 7.767 8.65v3.457h-5.14v1.868h12.147v-1.868h-5.146v-3.458c4.36-.468 7.77-4.168 7.77-8.65v-1.9h-1.866z"/></g><path fill="#84C803" d="M154.402 132.11l3.27-9.36 2.22.776c.253.09.597-.236.77-.727.173-.49.105-.958-.146-1.047l-5.37-1.877c-.253-.088-.596.237-.767.727-.172.49-.105.958.145 1.046l2.23.776-3.272 9.36-2.854-.777-1.3 4.086s-.276 1.164.22 2.442c.562 1.45 1.712 2.077 1.712 2.077l.005.002s1.29.226 2.634-.56c1.19-.69 1.694-1.772 1.694-1.772l1.53-4.006-2.722-1.17z"/><g fill="#84C803"><circle cx="149.875" cy="159.927" r="2.889"/><path d="M154.036 164.693c1.147-1.322 1.78-3 1.78-4.767 0-1.766-.633-3.443-1.78-4.766l.562-.566c1.305 1.475 2.02 3.354 2.02 5.332 0 1.98-.72 3.858-2.02 5.332l-.562-.565z"/><path d="M154.602 165.494c-.062 0-.122-.024-.166-.068l-.562-.566c-.088-.087-.1-.228-.02-.32 1.115-1.277 1.73-2.915 1.73-4.612 0-1.698-.614-3.335-1.73-4.61-.08-.095-.068-.234.02-.322l.56-.566c.048-.045.11-.07.175-.068.064.002.126.03.17.08 1.346 1.513 2.077 3.462 2.077 5.487s-.73 3.974-2.078 5.486c-.044.05-.105.078-.17.08l-.008-.002zm-.246-.814l.232.232c1.16-1.398 1.796-3.16 1.796-4.985 0-1.826-.636-3.587-1.796-4.985l-.233.23c1.104 1.338 1.702 3.017 1.702 4.755 0 1.737-.602 3.417-1.7 4.753z"/><path d="M156.236 166.893c1.738-1.91 2.69-4.37 2.69-6.966s-.953-5.055-2.69-6.966l.564-.563c1.89 2.062 2.925 4.72 2.925 7.53 0 2.813-1.036 5.47-2.925 7.53l-.564-.564z"/><path d="M156.8 167.693c-.06 0-.12-.024-.165-.068l-.565-.565c-.09-.09-.093-.232-.008-.325 1.696-1.864 2.63-4.28 2.63-6.807 0-2.526-.935-4.943-2.63-6.808-.085-.093-.08-.236.008-.325l.565-.565c.046-.045.107-.07.17-.068.065 0 .127.028.17.076 1.926 2.102 2.986 4.833 2.986 7.688 0 2.856-1.06 5.588-2.985 7.69-.043.047-.104.074-.17.076h-.004zm-.24-.81l.232.232c1.74-1.99 2.69-4.532 2.69-7.188 0-2.656-.95-5.2-2.69-7.188l-.232.23c1.68 1.928 2.604 4.39 2.604 6.957 0 2.568-.925 5.03-2.604 6.957z"/><g><path d="M158.396 169.054c2.313-2.49 3.584-5.715 3.584-9.127 0-3.412-1.27-6.638-3.584-9.127l.565-.564c2.466 2.64 3.813 6.066 3.813 9.69 0 3.627-1.352 7.053-3.812 9.693l-.564-.566z"/><path d="M158.962 169.854c-.063 0-.123-.025-.167-.07l-.564-.563c-.09-.09-.092-.233-.005-.326 2.27-2.44 3.52-5.626 3.52-8.966 0-3.34-1.25-6.525-3.52-8.967-.087-.092-.084-.236.005-.326l.565-.565c.045-.046.104-.07.17-.07.063.002.125.03.17.075 2.5 2.68 3.88 6.18 3.88 9.854 0 3.672-1.378 7.17-3.88 9.852-.045.046-.105.073-.17.074 0-.002-.002-.002-.003-.002zm-.24-.807l.232.23c2.312-2.568 3.59-5.88 3.59-9.35 0-3.473-1.273-6.783-3.59-9.353l-.23.23c2.253 2.508 3.492 5.737 3.492 9.12 0 3.385-1.24 6.616-3.493 9.123z"/></g></g><g fill="#84C803"><circle cx="154.979" cy="198.221" r="2.017"/><path d="M157.066 182.305c0-1.144-.924-2.067-2.062-2.067-1.146 0-2.067.924-2.067 2.067v9.768c0 1.142.925 2.066 2.067 2.066s2.062-.926 2.062-2.067v-9.768z"/></g><path fill="#84C803" d="M162.962 110.22h-8.376c.04-.032.08-.066.116-.104l.946-.95c1.577 1.006 3.643.876 4.944-.433 1.112-1.113 1.372-2.77.806-4.21.23-.17.44-.354.646-.558 2.618-2.617 2.618-6.862 0-9.48-2.617-2.617-6.862-2.617-9.48 0-.204.205-.386.42-.558.644-1.44-.567-3.096-.31-4.21.805-1.31 1.31-1.437 3.366-.43 4.944l-.953.95c-.604.598-.57 1.595.062 2.226.63.632 1.627.66 2.23.063l.877-.88 3.71 3.71-.878.88c-.604.597-.568 1.592.062 2.225.062.062.128.116.197.167h-5.637c-.58 0-1.056.47-1.056 1.05 0 .58.476 1.05 1.056 1.05h15.925c.58 0 1.05-.47 1.05-1.05s-.468-1.05-1.048-1.05zm-10.76-9.756c-.686.68-1.707.755-2.303.167-.59-.588-.515-1.616.167-2.297.687-.68 1.707-.754 2.302-.166.586.59.513 1.617-.167 2.297zm6.06 6.06c-.68.68-1.71.754-2.297.166-.59-.588-.514-1.617.166-2.297.68-.68 1.71-.755 2.297-.166.59.588.515 1.616-.166 2.296zm-4.212-10.557c1.8-1.8 4.718-1.8 6.517 0 1.807 1.8 1.807 4.717 0 6.517-.23.23-1.635-.966-3.085-2.394l-.54-.54c-1.61-1.636-3.097-3.38-2.892-3.583z"/><g fill="#84C803"><path d="M155 211.5l7 12.124-7-2.413-7 2.414M159.64 226.62l1.827 13.882-5.543-4.908-7.39-.45M161.76 242.8l-3.623 13.523-3.242-6.656-6.656-3.243M161.94 260.92l-8.523 11.107-.45-7.388-4.907-5.544M161.063 281.562l-12.125 7 2.414-7-2.414-7M161.94 302.2l-13.88 1.827 4.91-5.543.448-7.388M161.762 320.322l-13.524-3.624 6.657-3.242 3.243-6.655M159.64 336.5l-11.107-8.52 7.39-.45 5.544-4.908M155 351.624l-7-12.125 7 2.412 7-2.413M150.36 368.502l-1.827-13.88 5.543 4.907 7.39.45M148.24 384.323l3.623-13.523 3.242 6.656 6.656 3.243M148.06 398.202l8.523-11.106.45 7.388 4.907 5.543M148.938 409.562l12.125-7-2.415 7 2.414 7M148.06 420.923l13.88-1.827-4.91 5.542-.448 7.39M148.238 434.8l13.524 3.625-6.657 3.242-3.243 6.655M150.36 450.622l11.107 8.524-7.39.447-5.544 4.908"/></g><path fill="#80C342" d="M118.386 66.166l1.462-7.037c.213-1.006.52-1.96.915-2.857.396-.898.928-1.69 1.6-2.376.668-.685 1.52-1.24 2.536-1.668 1.02-.427 2.275-.67 3.77-.732l-.688 3.2c-1.34.244-2.292.715-2.854 1.416-.564.7-.967 1.707-1.21 3.016h3.145l-1.462 7.037h-7.214zm9.64 0l1.463-7.037c.22-1.006.52-1.96.913-2.857.396-.898.936-1.69 1.604-2.376.67-.685 1.515-1.24 2.536-1.668 1.02-.427 2.27-.67 3.77-.732l-.686 3.2c-1.34.244-2.292.715-2.856 1.416-.56.7-.966 1.707-1.21 3.016h3.153l-1.462 7.037h-7.223z"/><g fill="#84C803"><path d="M133.424 238.776l-1.057 1.057 3.01 3.01-3.02 3.02 1.057 1.058 3.02-3.02 1.047-1.046.01-.01M124.38 239.833l-1.056-1.057-3.02 3.02-1.048 1.048-.01.01 4.068 4.067 1.057-1.056-3.01-3.01M126.415 249.165l2.34-12.633h1.568l-2.34 12.633"/></g><path fill="#84C803" d="M152.524 469.632c-1.794 1.112-2.815 2.99-2.92 4.948h-1.625l2.603 2.616 2.615-2.616h-1.607c.096-1.297.79-2.524 1.98-3.263 1.98-1.23 4.57-.616 5.793 1.354 1.23 1.98.616 4.57-1.354 5.795-1.813 1.12-4.134.706-5.455-.886l-1.398 1.42c1.964 2.216 5.292 2.763 7.895 1.15 2.906-1.81 3.8-5.618 2-8.524-1.805-2.9-5.622-3.796-8.528-1.994zM123.507 260.873v12.557h13.22v-12.557h-13.22zm2.805 11.247h-1.44v-1.242h1.44v1.242zm0-2.168h-1.44v-1.244h1.44v1.244zm0-2.18h-1.44v-1.243h1.44v1.243zm0-2.157h-1.44v-1.243h1.44v1.243zm0-2.17h-1.44v-1.242h1.44v1.242zm6.425 8.675h-5.124v-4.337h5.124v4.337zm0-5.58h-5.124v-4.337h5.124v4.337zm2.747 5.58h-1.44v-1.242h1.44v1.242zm0-2.168h-1.44v-1.244h1.44v1.244zm0-2.18h-1.44v-1.243h1.44v1.243zm0-2.157h-1.44v-1.243h1.44v1.243zm0-2.17h-1.44v-1.242h1.44v1.242zm-13.2-3.74h11.754v-1.283H121v12.837h1.284v-11.555zM199.78 7.824c1.14-4.934 6.775-6.083 6.775-6.083V.223l3.365 3.36-3.365 3.36V5.42s-4.363-.18-6.776 2.402zm6.803.62V9.68h-8.133V4.414h1.773c.356-.458.76-.88 1.205-1.27h-4.253v7.805h10.67v-3.77l-1.262 1.265z"/><path fill="#3C5A98" d="M193.51 37.655h-1.97v3.218h1.97v9.453h3.79v-9.493h2.647l.28-3.178h-2.926v-1.81c0-.75.152-1.046.876-1.046h2.052v-3.3h-2.625c-2.814 0-4.093 1.242-4.093 3.62v2.535z"/><path fill="#2AA9E0" d="M233.74 0c8.273 0 15 6.716 15 15 0 8.283-6.727 15-15 15-8.28 0-15-6.716-15-15s6.72-15 15-15z"/><path fill="#FFF" d="M243.248 10.644c-.63.28-1.312.467-2.022.555.733-.437 1.29-1.123 1.554-1.942-.678.403-1.437.696-2.227.853-.645-.683-1.554-1.108-2.57-1.108-1.937 0-3.502 1.568-3.502 3.508 0 .272.033.543.1.8-2.933-.147-5.51-1.54-7.234-3.663-.303.513-.474 1.117-.474 1.758 0 1.218.562 2.295 1.5 2.924-.57-.022-1.062-.177-1.646-.44v.045c0 1.7 1.26 3.116 2.87 3.438-.292.08-.583.125-.9.125-.222 0-.43-.025-.647-.063.45 1.396 1.755 2.407 3.285 2.437-1.2.938-2.702 1.5-4.352 1.5-.29 0-.562-.018-.846-.05 1.553.996 3.398 1.58 5.39 1.58 6.446 0 9.98-5.345 9.98-9.987 0-.147-.005-.3-.017-.454.694-.492 1.29-1.11 1.758-1.816z"/><circle fill="#3C5A98" cx="265.5" cy="15" r="15"/><path fill="#FFF" d="M263.266 24.39v-8.812h-2.33v-3.173h2.33v-2.71c0-2.13 1.377-4.085 4.55-4.085 1.282 0 2.232.123 2.232.123l-.075 2.963s-.97-.01-2.023-.01c-1.145 0-1.32.528-1.32 1.403v2.316h3.437l-.146 3.173h-3.293v8.81h-3.36z"/><path fill="none" stroke="#000" stroke-miterlimit="10" d="M174.167 56.5H201.5V90h-27.333z"/><g fill="none" stroke="#FFF" stroke-width="2" stroke-miterlimit="10"><path d="M177.5 69.167l9.193-9.192M185.5 59.975l9.193 9.19"/></g><g fill="none" stroke="#FFF" stroke-width="2" stroke-miterlimit="10"><path d="M194.693 73.308L185.5 82.5M186.692 82.5l-9.192-9.19"/></g><path fill="#80C342" d="M189.53 122.464l-1.46 7.037c-.214 1.006-.522 1.96-.916 2.857-.396.898-.928 1.69-1.6 2.376-.668.685-1.518 1.24-2.536 1.668-1.02.427-2.273.67-3.77.732l.687-3.2c1.34-.244 2.292-.715 2.854-1.416.56-.7.966-1.707 1.21-3.016h-3.15l1.463-7.037h7.218zm-9.64 0l-1.46 7.037c-.218 1.006-.522 1.96-.915 2.857-.396.898-.933 1.69-1.603 2.376-.67.685-1.518 1.24-2.536 1.668-1.02.427-2.273.67-3.77.732l.687-3.2c1.34-.244 2.292-.715 2.854-1.416.562-.7.97-1.707 1.21-3.016h-3.15l1.463-7.037h7.22z"/><path fill="#41ABE1" d="M276.766 42.73c-2.09.92-4.33 1.544-6.677 1.82 2.403-1.434 4.254-3.717 5.103-6.426-2.25 1.333-4.73 2.296-7.375 2.822-2.123-2.257-5.14-3.667-8.48-3.667-6.413 0-11.615 5.203-11.615 11.614 0 .913.104 1.8.29 2.643-9.654-.48-18.212-5.11-23.938-12.138-.997 1.715-1.57 3.708-1.57 5.84 0 4.03 2.05 7.583 5.168 9.663-1.91-.06-3.694-.583-5.263-1.452v.142c0 5.628 4.004 10.322 9.314 11.39-.97.26-2.003.404-3.06.404-.75 0-1.47-.075-2.174-.21 1.466 4.613 5.77 7.973 10.846 8.068-3.98 3.117-8.98 4.976-14.43 4.976-.94 0-1.86-.057-2.772-.16 5.137 3.295 11.244 5.22 17.81 5.22 21.363 0 33.045-17.7 33.045-33.048 0-.507-.006-1.004-.032-1.506 2.27-1.638 4.24-3.68 5.797-6.014l.01.018z"/><path fill="#84C803" d="M251.16 94.327c0-.043-.02-.08-.025-.12-.006-.07-.018-.14-.04-.207-.024-.068-.058-.13-.093-.19-.02-.036-.03-.076-.055-.11-.014-.017-.035-.026-.047-.043-.05-.055-.104-.097-.162-.14-.05-.038-.098-.077-.154-.104-.057-.03-.12-.043-.182-.06-.068-.02-.133-.037-.205-.043-.022 0-.042-.013-.066-.013h-31.94c-.016 0-.03.01-.047.01-.075.003-.144.024-.217.043-.058.017-.12.026-.172.052-.056.027-.104.068-.155.104-.06.043-.12.082-.167.137-.01.013-.027.018-.04.03-.03.036-.038.08-.06.12-.04.06-.077.12-.103.19-.025.07-.033.138-.042.208-.006.047-.027.088-.027.136v20.607c0 .015.01.028.01.042.004.12.023.236.07.35 0 .003 0 .006.002.01v.002c.048.112.118.208.2.294.02.026.05.045.074.068.066.06.14.107.22.146.03.017.06.033.095.046.116.042.234.072.36.072h31.94c.128 0 .246-.03.36-.072.037-.014.066-.03.102-.048.076-.04.146-.086.21-.144.03-.024.056-.046.08-.073.07-.077.132-.164.18-.26.005-.015.015-.025.02-.04l.002-.004c.047-.114.064-.233.068-.353 0-.013.008-.023.008-.036V94.328zm-31.94 2.176l8.51 6.966-8.51 8.896V96.503zm1.855-1.146h26.02l-13.43 10.31-12.59-10.31zm28.024 1.06v16.064l-9.192-9.01 9.19-7.053zm-28.5 17.487l8.728-9.126 3.664 3c.19.155.42.233.652.233.22 0 .442-.07.626-.21l3.986-3.06 9.348 9.166-27.005-.002zM250.306 139.21h-6.122v-11.966c0-.587-.474-1.062-1.062-1.062h-17.59c-.585 0-1.06.475-1.06 1.062v11.965h-6.123c-.565 0-1.022.456-1.022 1.02v11.9c0 .563.457 1.02 1.02 1.02h6.123v2.728c0 .587.477 1.062 1.063 1.062h17.59c.585 0 1.06-.475 1.06-1.062v-2.73h6.124c.564 0 1.02-.455 1.02-1.02V140.23c0-.564-.457-1.02-1.02-1.02zm-23.712 0v-10.904h15.464v12.859h-15.464v-1.957zm15.465 11.898v3.708h-15.465V147.525h15.464v3.582zm7.226 0h-5.103v-3.582h2.12c.584 0 1.062-.477 1.062-1.062 0-.586-.478-1.062-1.063-1.062H222.35c-.586 0-1.06.476-1.06 1.062s.475 1.062 1.06 1.062h2.118v3.582h-5.102v-9.857h5.102v.978c0 .586.476 1.062 1.062 1.062h17.59c.585 0 1.06-.476 1.06-1.062v-.977h5.103v9.858h.003z"/><path fill="#F9A51A" d="M187.78 157.007l-.357.32-.36.318-.358.32-.358.318-.36.32-.357.32-.36.318-.357.32h4.424c.084-.168.165-.34.24-.514.077-.173.147-.35.213-.528.066-.18.127-.36.183-.543.056-.183.106-.37.152-.556.045-.19.086-.38.12-.57.035-.19.063-.385.087-.58.024-.196.042-.393.054-.59.01-.2.018-.4.018-.602v-.14l-.004-.14c0-.048-.003-.094-.005-.14-.002-.048-.004-.094-.008-.14l-.008-.14s-.007-.09-.012-.137l-.012-.136-.015-.138c-.02.045-.045.09-.07.136l-.07.135c-.026.044-.052.09-.08.133-.025.044-.053.088-.08.132l-.084.132-.088.13c-.03.042-.06.085-.092.127-.03.043-.063.085-.095.127l-.236.25-.237.247-.236.25-.237.247-.237.25-.236.248-.237.25-.242.25z"/><path fill="#F9A51A" d="M181.123 159.562l.65-.6.647-.602.65-.6.648-.602.648-.6.65-.602.648-.6.65-.6c.113-.108.228-.215.34-.323.114-.108.224-.22.332-.33s.21-.228.31-.345c.1-.117.19-.238.277-.362.086-.125.165-.253.235-.385.07-.132.13-.27.18-.412.05-.143.09-.29.116-.444.027-.154.042-.314.042-.482 0-.156-.014-.31-.04-.455-.028-.146-.068-.286-.12-.417-.05-.132-.115-.257-.19-.373-.075-.116-.16-.224-.256-.32-.094-.1-.2-.187-.314-.263-.115-.077-.238-.143-.368-.196-.13-.053-.27-.095-.415-.123-.146-.028-.298-.042-.456-.042-.2 0-.39.02-.565.06-.176.04-.34.1-.49.172-.15.074-.288.165-.412.27-.125.104-.236.223-.334.353s-.183.27-.254.422c-.07.15-.128.312-.172.48-.043.166-.073.34-.088.518-.015.18-.018.36-.005.546h-2.709v-.545c0-.336.035-.663.1-.98.064-.317.16-.623.282-.916.124-.293.274-.572.45-.833.173-.26.373-.504.594-.728.22-.223.46-.425.72-.603.26-.18.536-.333.827-.458.29-.126.597-.223.914-.29.316-.066.645-.1.98-.1h.18c.01 0 .02 0 .03.002h.03c-.203-.14-.412-.272-.625-.396s-.43-.242-.653-.352c-.224-.11-.452-.21-.683-.304-.232-.093-.468-.178-.708-.254-.24-.076-.485-.143-.732-.2-.247-.06-.498-.108-.752-.147-.254-.04-.51-.07-.77-.09-.26-.02-.523-.03-.79-.03-.692 0-1.37.07-2.023.204-.653.134-1.284.33-1.885.583-.6.253-1.17.562-1.706.922-.534.358-1.032.768-1.486 1.22-.454.453-.866.948-1.227 1.48-.362.532-.672 1.1-.927 1.698-.253.6-.45 1.227-.585 1.877-.134.652-.204 1.325-.204 2.015s.07 1.365.204 2.016c.134.65.332 1.28.585 1.877.255.598.565 1.166.926 1.698.36.533.77 1.028 1.226 1.48.454.453.952.862 1.486 1.22.535.36 1.105.67 1.706.923.6.253 1.232.45 1.885.583s1.33.203 2.024.203c.35 0 .694-.02 1.033-.053.34-.035.674-.086 1.003-.153s.65-.15.967-.25.626-.212.927-.34c.302-.128.596-.27.882-.426.286-.156.562-.325.83-.507.27-.18.528-.374.776-.58.25-.208.487-.425.715-.653H181.125v-2.556z"/><path fill="#C32228" d="M184.91 159.562l.36-.32.358-.318.358-.32.36-.32.357-.318.36-.32.358-.318.36-.32.236-.247.237-.248.236-.25.236-.247.238-.248.236-.25.237-.247.237-.25c.032-.04.064-.083.095-.125l.09-.128.09-.13.083-.13.08-.133.08-.133.07-.134c.025-.045.05-.09.07-.136-.04-.368-.1-.73-.182-1.086-.078-.355-.178-.704-.294-1.043-.117-.34-.25-.67-.404-.993-.15-.322-.32-.635-.503-.937-.185-.303-.384-.595-.598-.875-.214-.28-.442-.55-.685-.805-.242-.255-.497-.5-.765-.728-.268-.23-.548-.446-.84-.646h-.03l-.028-.002h-.06c-.01-.002-.02-.002-.03-.002h-.09c-.336 0-.664.035-.98.1-.317.067-.623.165-.914.29-.29.126-.568.28-.827.458-.26.177-.5.38-.72.603-.22.224-.42.467-.595.73-.175.26-.326.54-.45.832-.122.293-.217.6-.282.916-.064.32-.1.646-.1.98v.546h2.709c-.013-.185-.01-.368.005-.546.015-.18.044-.353.087-.52.044-.167.102-.327.172-.478.07-.15.155-.292.253-.422s.21-.248.334-.353c.124-.104.262-.195.412-.27.15-.074.313-.132.49-.17.175-.04.364-.062.564-.062.158 0 .31.015.456.042.146.028.283.07.415.123.13.054.253.12.368.196.114.077.22.164.314.262.096.097.182.205.256.32.074.117.14.242.19.374.052.132.092.27.12.417.026.145.04.297.04.454 0 .167-.014.328-.042.482-.025.154-.064.302-.115.444-.05.143-.11.28-.18.413-.07.132-.15.26-.235.385-.086.124-.18.245-.277.362-.098.117-.202.232-.31.344s-.218.222-.33.33c-.114.11-.23.216-.343.323l-.65.6-.648.6-.65.602-.647.6-.65.6-.648.602-.648.6-.65.602v2.556h6.367c.092-.094.184-.19.272-.287.088-.097.175-.195.26-.295.085-.1.168-.202.25-.306.082-.104.16-.208.237-.315.077-.106.152-.215.225-.325.073-.11.144-.22.212-.334.07-.113.135-.227.2-.343.063-.116.125-.233.186-.35H184.91v-.003z"/><path fill="#F89C1C" d="M187.532 162.082h-.002v.002h-.002.002v-.002"/><g><path d="M170.792 182.517v-13.184l8.958 4.978 8.958-4.977v13.184l-8.958 4.816-8.958-4.816zm9.247-7.706v11.862l8.09-4.495v-11.86l-8.09 4.494zm-8.67 7.367l8.09 4.495v-11.86l-8.09-4.496v11.86z"/></g></svg>